<?xml version="1.0" encoding="utf-8"?>

<!DOCTYPE svg PUBLIC "-//W3C//DTD SVG 1.1//EN" "http://www.w3.org/Graphics/SVG/1.1/DTD/svg11.dtd">
<svg version="1.1" id="Layer_1" xmlns="http://www.w3.org/2000/svg" xmlns:xlink="http://www.w3.org/1999/xlink" x="0px" y="0px"
	 viewBox="0 0 634.8957 1646.9451" enable-background="new 0 0 634.8957 1646.9451" xml:space="preserve">
<g>
	<path d="M423.8368,1283.7029c-10.2176,0.5559-20.2622-0.7849-30.1864-2.9792c-2.0351-0.4501-3.4425,0.3683-5.0307,0.9734
		c-11.6743,4.4474-23.6564,7.0167-36.2384,6.6506c-5.0534-0.1471-9.7908-1.2618-14.0824-3.7244
		c-2.558-1.4677-4.8669-1.9425-7.4172-0.61c-2.4299,1.2697-3.4932,0.3914-4.1604-2.0302c-0.7068-2.5652-1.0865-5.6531-2.7651-7.4049
		c-1.9488-2.0338-4.9706,0.7819-7.656,0.2097c-1.5752-0.3354-3.2826-0.0061-4.9265-0.0732
		c-3.7485-0.1531-6.9874-0.976-8.1537-5.3147c-0.3458-1.2861-0.8062-3.6824-2.3716-3.348c-2.095,0.4474-0.9356,2.8116-0.8838,4.2273
		c0.375,10.2456,0.726,20.5844,2.1197,30.6578c1.1562,8.3569,7.4329,14.9954,12.6136,21.7645
		c7.4415,9.7231,17.8807,9.207,28.1202,8.3872c13.7643-1.1021,27.5142-0.5396,41.2685-0.8019
		c20.3605-0.3884,40.6448,1.3007,60.9674,1.9135c21.5245,0.6492,42.3764,5.205,62.5933,12.0966
		c14.0552,4.7911,26.6559,12.703,37.2949,23.3677c5.5113,5.5249,8.625,12.4005,11.1937,19.5773
		c2.543,7.1044,5.7916,14.0967,7.1829,21.4319c1.2911,6.8069,1.9351,13.7955,3.2513,20.6517
		c1.6107,8.3896,2.6507,16.6602,6.8088,24.6538c4.7977,9.2234,6.2325,19.9663,8.8455,30.1285
		c2.8354,11.0276,6.267,21.8973,8.2353,33.1555c0.7181,4.1083,0.1354,8.0989-0.3134,12.0173
		c-0.7568,6.6049-0.4554,13.1512-0.0588,19.6942c0.7289,12.022-4.9128,21.3076-12.5256,29.6174
		c-16.9177,18.4667-39.0361,27.8301-62.4351,34.6171c-21.9506,6.3669-44.3853,9.8475-67.2854,10.1575
		c-29.0038,0.3923-57.9715-0.3384-86.9499-1.6982c-21.5116-1.0095-42.9705-2.5343-64.3536-4.8771
		c-16.397-1.7964-32.7304-4.2174-49.0457-6.7795c-17.192-2.7-34.3635-5.3812-51.3474-9.194
		c-25.2987-5.6791-50.1169-13.0306-74.7003-21.2363c-13.0947-4.3711-26.3473-8.2969-38.6647-14.6949
		c-13.7221-7.1274-26.0133-15.7805-32.8211-30.4082c-2.1099-4.5336-3.4817-9.1958-3.5321-14.2018
		c-0.0828-8.2275-1.0609-16.3671-2.1186-24.5143c-0.9639-7.4248,1.5096-14.1434,5.0347-20.5187
		c2.176-3.9354,4.6021-7.7826,7.9794-10.7526c1.849-1.6259,2.0918-3.5192,2.3454-5.5398
		c1.9552-15.5786,3.4187-31.2345,5.9139-46.7247c1.9851-12.3235,9.107-22.0074,19.031-29.3828
		c19.3201-14.3584,41.5854-22.111,64.7624-27.1178c8.0678-1.743,12.5439-5.2506,14.5353-13.1266
		c2.4758-9.7913,8.8226-17.7371,13.8004-26.3046c1.6751-2.8831,2.0017-5.3101,0.6885-8.3657
		c-4.0602-9.4474-7.9489-18.9695-11.817-28.4979c-1.0481-2.5819-2.2604-4.8855-5.0597-5.9023
		c-1.1984-0.4352-1.8818-1.3568-2.4203-2.4624c-2.2923-4.7062-6.3733-8.2024-8.7164-12.9111
		c-0.6383-1.2827-1.6002-2.2708-1.8917-3.8748c-0.9592-5.2778-2.1342-10.526-3.4933-15.7156
		c-0.3512-1.3411-1.0313-2.6975-0.2978-3.8418c2.3192-3.6182,0.6697-6.8436-0.6973-10.1182
		c-19.1852-45.9556-38.5383-91.842-57.4775-137.8988c-5.5837-13.5785-11.2726-27.306-14.0975-41.7363
		c-2.7125-13.8563-3.1952-27.9965-2.1354-42.2413c2.0532-27.6,9.3323-54.2429,14.1105-81.3345
		c5.3263-30.1992,11.621-60.2276,17.4807-90.3329c3.637-18.6855,7.2467-37.3764,10.875-56.0637
		c0.5343-2.7519,1.3035-5.3795,0.8132-8.3436c-0.5612-3.3925,1.761-5.3618,4.7165-6.687c6.5264-2.9263,13.349-4.1159,20.4858-4.4535
		c14.5741-0.6893,29.1335-1.7149,43.6918-2.7064c16.6214-1.1319,33.2473-2.2294,49.8486-3.6144
		c17.0382-1.4215,34.1118-2.3452,51.1412-3.7647c6.3429-0.5287,12.7568-0.1209,19.082-1.3846
		c1.9552-0.3907,3.3177-1.0776,3.3673-2.6615c0.0873-2.7851,0.8069-4.5158,3.8335-4.8297c0.9124-0.0945,1.5989-0.9654,1.5101-1.9411
		c-0.0952-1.0461-1.1558-0.5689-1.7706-0.8188c-2.4625-1.001-5.0219-0.8093-7.4979-0.3381
		c-1.8108,0.3447-2.3673-0.6095-2.0414-1.8192c2.1233-7.8813-0.7296-15.6841-0.2731-23.5503
		c0.1597-2.7527,0.9625-4.3088,3.4971-4.444c6.0119-0.3207,11.8329-2.3568,18.0259-1.4205c3.1682,0.4789,3.544-3.1562,3.5941-5.0664
		c0.2156-8.2123-0.0886-16.4391-0.2529-24.6597c-0.0325-1.6271-0.3678-3.2471-0.4202-4.875
		c-0.36-11.185-0.3179-22.3972-1.1118-33.5503c-0.9099-12.7841-0.9586-25.5875-1.5002-38.3762
		c-0.195-4.6052,1.4279-9.207,1.1379-13.9298c-0.1042-1.6973,1.4819-2.4337,2.6846-3.311c1.6008-1.1678,0.8047-2.7564,0.5027-4.1282
		c-0.4038-1.834-1.9214-0.9266-2.9537-0.8337c-8.6323,0.777-8.8821,0.5828-9.541-8.4077c-0.326-4.4477-0.7111-8.8939-0.8995-13.3479
		c-0.126-2.9789-1.1402-4.0064-4.3995-3.8624c-19.5654,0.8641-39.1654,1.0862-58.7072,2.2831
		c-9.546,0.5847-19.1074,0.728-28.6442,1.1028c-8.3732,0.3291-16.0997-3.0482-22.0927-9.2257
		c-5.0953-5.2522-9.1513-11.3187-13.1663-17.4555c-11.8231-18.0715-22.4145-36.873-33.3975-55.4415
		c-11.4161-19.3008-22.6425-38.7138-33.9958-58.0519c-9.7252-16.565-19.5881-33.0495-29.2381-49.6579
		c-4.3519-7.4899-8.5079-15.0663-8.2405-24.2458c0.3503-12.0298,5.4714-22.0649,13.6722-30.1718
		c27.6722-27.3553,55.7268-54.3237,83.64-81.4352c24.2633-23.5663,48.5245-47.1348,72.8211-70.6666
		c1.4908-1.4439,2.5108-2.6318,1.608-4.9582c-1.1876-3.0599,0.5595-5.4579,2.5543-7.6294
		c22.4694-24.46,44.9404-48.9184,67.4032-73.3845c12.8521-13.9982,25.6958-28.0041,38.5305-42.0181
		c4.2856-4.6794,4.2873-4.7078,7.5359,0.6437c37.3941,61.5979,74.589,123.3184,112.3873,184.6672
		c5.4167,8.7915,5.2385,16.7756,3.1083,25.8763c-2.6016,11.1145-4.7171,22.3428-7.0306,33.5244
		c-0.4922,2.3788-1.3626,4.3342-3.3903,6.0374c-21.7839,18.2975-43.4689,36.7128-65.1685,55.1104
		c-2.7278,2.3127-5.5078,4.5859-8.0303,7.1104c-1.697,1.6984-3.7133,2.4832-5.6357,1.5666
		c-2.107-1.0046-2.9978,0.0776-4.2032,1.1985c-4.3431,4.0384-8.6995,8.0625-13.0637,12.078
		c-5.0992,4.6919-5.351,12.3127-0.4373,17.382c10.9367,11.283,22.3626,22.1277,32.7752,33.8726
		c10.2919,11.6088,16.4371,25.2441,16.9619,41.2473c0.6053,18.4563,3.2286,36.8269,3.2529,55.3049
		c0.0137,10.4041,1.9894,20.79,0.2758,31.2122c-0.397,2.4149-1.239,4.5886-3.7062,5.001c-3.0617,0.5118-3.2714,1.9031-2.956,4.6349
		c0.7874,6.8208,0.6396,13.7126,1.1282,20.5763c1.0269,14.4237,1.3993,28.8936,2.0889,43.3423
		c0.1129,2.3647,0.5177,4.7141,0.7099,7.0768c0.3229,3.9699-1.4444,6.3145-5.5102,6.4828
		c-2.7143,0.1124-3.5193,1.3684-3.4583,3.9797c0.5295,22.6624,2.011,45.2986,1.8703,67.9792
		c-0.0215,3.466,1.6844,5.4659,5.2289,5.0414c5.3561-0.6415,10.6777-0.0464,16.015,0.002c3.3446,0.0303,4.7188,1.4513,4.8247,4.9103
		c0.2367,7.7336,0.8182,15.4579,1.3647,23.1786c0.0555,0.7831,0.3604,1.6094-0.5015,1.8132
		c-3.5982,0.8507-2.834,3.6296-2.707,6.0275c1.4615,27.5872,2.8802,55.1772,4.515,82.7544
		c0.3985,6.722,4.0625,11.2441,10.6544,13.5008c18.901,6.4704,37.703,13.2314,56.6299,19.6235
		c5.0724,1.713,8.2802,4.3817,10.0772,9.6483c3.895,11.415,4.1064,10.8304,16.2314,9.6901
		c5.6625-0.5326,12.6718-1.5566,16.5411,4.4721c2.8282,4.4066,4.4907,9.5909,6.431,14.5237
		c0.8101,2.0593-0.6733,3.7405-2.0981,5.0546c-9.4539,8.7191-20.2366,15.5173-31.5435,21.5203
		c-12.6871,6.7358-25.9687,12.141-39.348,17.3082c-3.0534,1.1792-3.883,2.7938-1.8737,5.6467
		c2.3656,3.3588,3.8065,6.6423,3.5152,11.3036c-0.2713,4.341,3.7387,8.1831,5.7222,12.316
		c1.9267,4.0146,5.3578,7.6877,6.0355,11.8514c2.1959,13.4896,10.4005,24.2708,15.2411,36.5263
		c1.3269,3.3593,0.3643,6.3648-2.486,8.2097c-7.8833,5.1025-16.4376,8.9878-24.9765,12.8411
		c-3.3688,1.5201-6.6927-0.3167-8.478-4.2477c-8.34-18.3648-16.6543-36.7412-24.9684-55.1177
		c-1.2274-2.713-2.0333-5.7993-6.2186-4.89c-1.5416,0.3348-1.762-1.3984-2.2948-2.3544c-1.5263-2.7388-2.9084-5.5582-4.3489-8.3451
		c-2.2646-4.3811-4.8994-5.5123-9.5972-4.0514c-7.8394,2.4379-15.5383,5.3539-23.5923,7.0576
		c-2.0758,0.4391-2.6265,1.5912-2.4337,3.5209c0.2675,2.6772,0.335,5.3754,0.6314,8.0485c0.2773,2.501,0.2887,4.7076-2.3398,6.1842
		c-1.6895,0.9492-1.3516,2.8217-1.2702,4.4749c0.838,17.0198,1.719,34.0377,2.445,51.0624
		c0.1211,2.8403,0.9747,3.9109,3.9506,3.8284c6.7304-0.1869,13.4747-0.1599,20.205,0.0475
		c4.0523,0.1248,6.3159-3.1571,9.6075-4.3938c2.1284-0.7998,5.2193-3.7511,4.956,1.9514c-0.0848,1.8373,1.5825,1.4673,2.6842,1.4224
		c19.5737-0.8004,39.1442-1.6827,58.7195-2.4402c8.5044-0.3291,17.0359-0.0255,25.5092-1.0408
		c2.2466-0.2693,3.0888,0.906,3.8714,2.7598c6.7991,16.1067,13.6799,32.1791,20.5452,48.2578
		c1.1144,2.61,2.044,5.3324,3.4495,7.7783c5.6678,9.8633,5.8553,20.7646,6.3017,31.6409c0.0919,2.2375,0.0881,4.5156,0.5288,6.6938
		c0.7189,3.5526-0.8256,5.09-4.1328,5.2657c-11.9383,0.6349-23.8822,1.1688-35.8182,1.8418
		c-19.55,1.1022-39.0929,2.3323-58.6439,3.4171c-18.2033,1.01-36.4137,1.8921-54.6201,2.8469
		c-21.0546,1.1042-42.1079,2.2319-63.1623,3.3381c-7.6105,0.3999-15.2197,0.9086-22.8358,1.0758
		c-2.8407,0.0624-4.0671,0.7321-3.8719,3.7834c0.6965,10.8926,1.2589,21.7941,1.7956,32.696
		c0.1412,2.8673,1.5388,2.8651,3.5277,1.8142c3.4337-1.8142,6.8333-3.6929,10.2675-5.5061c1.6701-0.8818,1.9583-2.462,2.3002-4.0804
		c0.8834-4.1821,3.4608-6.9895,7.017-9.2755c7.2746-4.676,15.3208-6.7632,23.5983-8.9799
		c6.4167-1.7185,12.8367-3.5208,19.3554-4.885c1.3286-0.2782,1.9379-0.7638,2.562-1.9608c1.4966-2.8708,4.2643-4.2865,7.314-4.5046
		c10.3352-0.7395,20.1953,1.0665,29.2034,6.4199c2.7786,1.6512,5.1447,3.7474,4.5315,7.5302
		c-0.2444,1.5077,0.7497,1.9301,1.8763,2.5629c5.8553,3.2881,11.9706,6.3151,15.1178,12.8149
		c0.6874,1.4197,2.2659,1.3264,3.4218,1.9225c9.2542,4.7722,14.7105,12.7871,18.3143,22.1041
		c1.8099,4.6791-1.1403,9.255-1.9819,13.8342c-3.1621,17.205-6.7264,34.3357-10.0852,51.5049
		c-1.9185,9.8069-9.0651,14.2639-17.6352,16.9459C440.8792,1283.5172,432.4138,1284.4124,423.8368,1283.7029z M327.3604,977.1285
		c-2.5408,0-5.086,0.0935-7.6212-0.0264c-2.5369-0.1199-5.1084-0.233-7.5868-0.7343c-7.4501-1.5069-8.3375-1.4871-9.3419-8.4959
		c-0.3374-2.3543-1.0542-4.6548-1.6105-6.9771c-1.0632-4.4373-0.4293-8.1292,3.7918-10.8765
		c4.7474-3.09,9.1112-6.7804,13.9197-9.7612c2.4528-1.5206,2.6313-2.6762,1.7765-5.2977c-2.587-7.934-4.8558-15.884-4.7966-24.4802
		c0.0938-13.6077-0.7668-27.2194-0.9242-40.8329c-0.0447-3.8649-1.3895-4.7277-5.0102-4.502
		c-22.682,1.4136-45.3673,2.8386-68.071,3.8036c-7.0448,0.2994-12.8815,2.5558-18.4572,6.5882
		c-5.3163,3.8448-10.8288,7.4725-16.534,10.7032c-3.0507,1.7275-3.4514,3.8566-3.1963,6.8642
		c1.8701,22.0544,3.681,44.114,5.4713,66.175c2.6251,32.3475,5.2038,64.6986,7.8302,97.046
		c1.1611,14.3009,2.3847,28.5968,3.6031,42.8929c0.082,0.962-0.3764,2.2234,0.9687,2.6896
		c0.7734,0.2681,1.2256-0.2345,1.7982-0.8442c4.4497-4.7388,8.9066-9.5581,12.8928-14.6062
		c10.7343-13.5938,20.697-27.7953,31.0581-41.6869c2.3219-3.1129,3.661-6.2841,3.3902-10.2902
		c-0.2614-3.8666,0.2373-7.7784,0.1423-11.6641c-0.0732-2.9954,0.8934-4.3403,4.0988-4.2682
		c3.5692,0.0801,7.1504-0.5262,10.725-0.5112c8.8829,0.0368,17.6875-1.6437,26.6695,0.5928
		c18.6665,4.6483,37.6524,8.0153,55.9716,14.0565c3.3106,1.0917,4.3683,0.2648,4.114-3.4508
		c-0.9702-14.1774-1.5305-28.3823-2.4185-42.566c-0.2053-3.2783,1.1117-7.382-3.5912-9.0476
		c-0.4374-0.1549-0.7758-1.3348-0.7241-2.0051c0.3448-4.4672-2.285-3.7018-5.1125-3.1665
		C349.5941,974.5295,338.611,976.7253,327.3604,977.1285z M308.5931,1200.6556c-4.4836,0.2356-8.9688,0.4451-13.4498,0.7213
		c-1.5529,0.0957-1.8182,1.0837-1.6675,2.5035c0.4703,4.4296,0.7834,8.8759,1.2574,13.3049
		c0.0976,0.9117,0.0381,2.1659,1.5995,2.1938c3.9505,0.0704,9.8444-5.8452,8.9138-9.4073
		C304.2166,1206.0293,303.1789,1202.4794,308.5931,1200.6556z"/>
</g>
</svg>
